<?xml version="1.0" encoding="utf-8" standalone="no"?>
<!DOCTYPE svg PUBLIC "-//W3C//DTD SVG 1.1//EN"
  "http://www.w3.org/Graphics/SVG/1.1/DTD/svg11.dtd">
<svg xmlns:xlink="http://www.w3.org/1999/xlink" width="600.3pt" height="302.688pt" viewBox="0 0 600.3 302.688" xmlns="http://www.w3.org/2000/svg" version="1.1">
 <metadata>
  <rdf:RDF xmlns:dc="http://purl.org/dc/elements/1.1/" xmlns:cc="http://creativecommons.org/ns#" xmlns:rdf="http://www.w3.org/1999/02/22-rdf-syntax-ns#">
   <cc:Work>
    <dc:type rdf:resource="http://purl.org/dc/dcmitype/StillImage"/>
    <dc:date>2026-06-05T13:41:30.842547</dc:date>
    <dc:format>image/svg+xml</dc:format>
    <dc:creator>
     <cc:Agent>
      <dc:title>Matplotlib v3.10.9, https://matplotlib.org/</dc:title>
     </cc:Agent>
    </dc:creator>
   </cc:Work>
  </rdf:RDF>
 </metadata>
 <defs>
  <style type="text/css">*{stroke-linejoin: round; stroke-linecap: butt}</style>
 </defs>
 <g id="figure_1">
  <g id="patch_1">
   <path d="M 0 302.688 
L 600.3 302.688 
L 600.3 0 
L 0 0 
z
" style="fill: #ffffff"/>
  </g>
  <g id="axes_1">
   <g id="patch_2">
    <path d="M 42.9399 77.83056 
L 66.3759 77.83056 
Q 71.0631 77.83056 71.0631 73.98672 
L 71.0631 62.4552 
Q 71.0631 58.61136 66.3759 58.61136 
L 42.9399 58.61136 
Q 38.2527 58.61136 38.2527 62.4552 
L 38.2527 73.98672 
Q 38.2527 77.83056 42.9399 77.83056 
z
" clip-path="url(#pf52f605a98)" style="fill: #e7f0f2; stroke: #e7f0f2; stroke-linejoin: miter"/>
   </g>
   <g id="patch_3">
    <path d="M 80.4375 77.83056 
L 103.8735 77.83056 
Q 108.5607 77.83056 108.5607 73.98672 
L 108.5607 62.4552 
Q 108.5607 58.61136 103.8735 58.61136 
L 80.4375 58.61136 
Q 75.7503 58.61136 75.7503 62.4552 
L 75.7503 73.98672 
Q 75.7503 77.83056 80.4375 77.83056 
z
" clip-path="url(#pf52f605a98)" style="fill: #f7eadf; stroke: #f7eadf; stroke-linejoin: miter"/>
   </g>
   <g id="patch_4">
    <path d="M 117.9351 77.83056 
L 141.3711 77.83056 
Q 146.0583 77.83056 146.0583 73.98672 
L 146.0583 62.4552 
Q 146.0583 58.61136 141.3711 58.61136 
L 117.9351 58.61136 
Q 113.2479 58.61136 113.2479 62.4552 
L 113.2479 73.98672 
Q 113.2479 77.83056 117.9351 77.83056 
z
" clip-path="url(#pf52f605a98)" style="fill: #e9edf7; stroke: #e9edf7; stroke-linejoin: miter"/>
   </g>
   <g id="patch_5">
    <path d="M 155.4327 77.83056 
L 178.8687 77.83056 
Q 183.5559 77.83056 183.5559 73.98672 
L 183.5559 62.4552 
Q 183.5559 58.61136 178.8687 58.61136 
L 155.4327 58.61136 
Q 150.7455 58.61136 150.7455 62.4552 
L 150.7455 73.98672 
Q 150.7455 77.83056 155.4327 77.83056 
z
" clip-path="url(#pf52f605a98)" style="fill: #e7f0f2; stroke: #e7f0f2; stroke-linejoin: miter"/>
   </g>
   <g id="patch_6">
    <path d="M 192.9303 77.83056 
L 216.3663 77.83056 
Q 221.0535 77.83056 221.0535 73.98672 
L 221.0535 62.4552 
Q 221.0535 58.61136 216.3663 58.61136 
L 192.9303 58.61136 
Q 188.2431 58.61136 188.2431 62.4552 
L 188.2431 73.98672 
Q 188.2431 77.83056 192.9303 77.83056 
z
" clip-path="url(#pf52f605a98)" style="fill: #f7eadf; stroke: #f7eadf; stroke-linejoin: miter"/>
   </g>
   <g id="patch_7">
    <path d="M 230.4279 77.83056 
L 253.8639 77.83056 
Q 258.5511 77.83056 258.5511 73.98672 
L 258.5511 62.4552 
Q 258.5511 58.61136 253.8639 58.61136 
L 230.4279 58.61136 
Q 225.7407 58.61136 225.7407 62.4552 
L 225.7407 73.98672 
Q 225.7407 77.83056 230.4279 77.83056 
z
" clip-path="url(#pf52f605a98)" style="fill: #e9edf7; stroke: #e9edf7; stroke-linejoin: miter"/>
   </g>
   <g id="patch_8">
    <path d="M 267.9255 77.83056 
L 291.3615 77.83056 
Q 296.0487 77.83056 296.0487 73.98672 
L 296.0487 62.4552 
Q 296.0487 58.61136 291.3615 58.61136 
L 267.9255 58.61136 
Q 263.2383 58.61136 263.2383 62.4552 
L 263.2383 73.98672 
Q 263.2383 77.83056 267.9255 77.83056 
z
" clip-path="url(#pf52f605a98)" style="fill: #e7f0f2; stroke: #e7f0f2; stroke-linejoin: miter"/>
   </g>
   <g id="patch_9">
    <path d="M 305.4231 77.83056 
L 328.8591 77.83056 
Q 333.5463 77.83056 333.5463 73.98672 
L 333.5463 62.4552 
Q 333.5463 58.61136 328.8591 58.61136 
L 305.4231 58.61136 
Q 300.7359 58.61136 300.7359 62.4552 
L 300.7359 73.98672 
Q 300.7359 77.83056 305.4231 77.83056 
z
" clip-path="url(#pf52f605a98)" style="fill: #f7eadf; stroke: #f7eadf; stroke-linejoin: miter"/>
   </g>
   <g id="patch_10">
    <path d="M 37.0809 101.85456 
L 334.7181 101.85456 
Q 339.4053 101.85456 339.4053 98.01072 
L 339.4053 90.32304 
Q 339.4053 86.4792 334.7181 86.4792 
L 37.0809 86.4792 
Q 32.3937 86.4792 32.3937 90.32304 
L 32.3937 98.01072 
Q 32.3937 101.85456 37.0809 101.85456 
z
" clip-path="url(#pf52f605a98)" style="fill: #f3f5f7; stroke: #d9dee6; stroke-linejoin: miter"/>
   </g>
   <g id="patch_11">
    <path d="M 37.0809 165.7584 
L 173.5956 165.7584 
Q 178.2828 165.7584 178.2828 161.91456 
L 178.2828 127.80048 
Q 178.2828 123.95664 173.5956 123.95664 
L 37.0809 123.95664 
Q 32.3937 123.95664 32.3937 127.80048 
L 32.3937 161.91456 
Q 32.3937 165.7584 37.0809 165.7584 
z
" clip-path="url(#pf52f605a98)" style="fill: #dff3f5; stroke: #1b9aaa; stroke-linejoin: miter"/>
   </g>
   <g id="patch_12">
    <path d="M 89.226 152.78544 
L 92.27268 152.78544 
L 92.27268 150.286944 
L 89.226 150.286944 
z
" clip-path="url(#pf52f605a98)" style="fill: #1b9aaa; stroke: #1b9aaa; stroke-width: 0.5; stroke-linejoin: miter"/>
   </g>
   <g id="patch_13">
    <path d="M 93.62025 152.78544 
L 96.66693 152.78544 
L 96.66693 150.286944 
L 93.62025 150.286944 
z
" clip-path="url(#pf52f605a98)" style="fill: #eef1f4; stroke: #d9dee6; stroke-width: 0.5; stroke-linejoin: miter"/>
   </g>
   <g id="patch_14">
    <path d="M 98.0145 152.78544 
L 101.06118 152.78544 
L 101.06118 150.286944 
L 98.0145 150.286944 
z
" clip-path="url(#pf52f605a98)" style="fill: #1b9aaa; stroke: #1b9aaa; stroke-width: 0.5; stroke-linejoin: miter"/>
   </g>
   <g id="patch_15">
    <path d="M 102.40875 152.78544 
L 105.45543 152.78544 
L 105.45543 150.286944 
L 102.40875 150.286944 
z
" clip-path="url(#pf52f605a98)" style="fill: #eef1f4; stroke: #d9dee6; stroke-width: 0.5; stroke-linejoin: miter"/>
   </g>
   <g id="patch_16">
    <path d="M 106.803 152.78544 
L 109.84968 152.78544 
L 109.84968 150.286944 
L 106.803 150.286944 
z
" clip-path="url(#pf52f605a98)" style="fill: #eef1f4; stroke: #d9dee6; stroke-width: 0.5; stroke-linejoin: miter"/>
   </g>
   <g id="patch_17">
    <path d="M 111.19725 152.78544 
L 114.24393 152.78544 
L 114.24393 150.286944 
L 111.19725 150.286944 
z
" clip-path="url(#pf52f605a98)" style="fill: #1b9aaa; stroke: #1b9aaa; stroke-width: 0.5; stroke-linejoin: miter"/>
   </g>
   <g id="patch_18">
    <path d="M 115.5915 152.78544 
L 118.63818 152.78544 
L 118.63818 150.286944 
L 115.5915 150.286944 
z
" clip-path="url(#pf52f605a98)" style="fill: #eef1f4; stroke: #d9dee6; stroke-width: 0.5; stroke-linejoin: miter"/>
   </g>
   <g id="patch_19">
    <path d="M 119.98575 152.78544 
L 123.03243 152.78544 
L 123.03243 150.286944 
L 119.98575 150.286944 
z
" clip-path="url(#pf52f605a98)" style="fill: #1b9aaa; stroke: #1b9aaa; stroke-width: 0.5; stroke-linejoin: miter"/>
   </g>
   <g id="patch_20">
    <path d="M 89.226 156.38904 
L 92.27268 156.38904 
L 92.27268 153.890544 
L 89.226 153.890544 
z
" clip-path="url(#pf52f605a98)" style="fill: #eef1f4; stroke: #d9dee6; stroke-width: 0.5; stroke-linejoin: miter"/>
   </g>
   <g id="patch_21">
    <path d="M 93.62025 156.38904 
L 96.66693 156.38904 
L 96.66693 153.890544 
L 93.62025 153.890544 
z
" clip-path="url(#pf52f605a98)" style="fill: #eef1f4; stroke: #d9dee6; stroke-width: 0.5; stroke-linejoin: miter"/>
   </g>
   <g id="patch_22">
    <path d="M 98.0145 156.38904 
L 101.06118 156.38904 
L 101.06118 153.890544 
L 98.0145 153.890544 
z
" clip-path="url(#pf52f605a98)" style="fill: #1b9aaa; stroke: #1b9aaa; stroke-width: 0.5; stroke-linejoin: miter"/>
   </g>
   <g id="patch_23">
    <path d="M 102.40875 156.38904 
L 105.45543 156.38904 
L 105.45543 153.890544 
L 102.40875 153.890544 
z
" clip-path="url(#pf52f605a98)" style="fill: #eef1f4; stroke: #d9dee6; stroke-width: 0.5; stroke-linejoin: miter"/>
   </g>
   <g id="patch_24">
    <path d="M 106.803 156.38904 
L 109.84968 156.38904 
L 109.84968 153.890544 
L 106.803 153.890544 
z
" clip-path="url(#pf52f605a98)" style="fill: #eef1f4; stroke: #d9dee6; stroke-width: 0.5; stroke-linejoin: miter"/>
   </g>
   <g id="patch_25">
    <path d="M 111.19725 156.38904 
L 114.24393 156.38904 
L 114.24393 153.890544 
L 111.19725 153.890544 
z
" clip-path="url(#pf52f605a98)" style="fill: #1b9aaa; stroke: #1b9aaa; stroke-width: 0.5; stroke-linejoin: miter"/>
   </g>
   <g id="patch_26">
    <path d="M 115.5915 156.38904 
L 118.63818 156.38904 
L 118.63818 153.890544 
L 115.5915 153.890544 
z
" clip-path="url(#pf52f605a98)" style="fill: #eef1f4; stroke: #d9dee6; stroke-width: 0.5; stroke-linejoin: miter"/>
   </g>
   <g id="patch_27">
    <path d="M 119.98575 156.38904 
L 123.03243 156.38904 
L 123.03243 153.890544 
L 119.98575 153.890544 
z
" clip-path="url(#pf52f605a98)" style="fill: #eef1f4; stroke: #d9dee6; stroke-width: 0.5; stroke-linejoin: miter"/>
   </g>
   <g id="patch_28">
    <path d="M 198.2034 165.7584 
L 334.7181 165.7584 
Q 339.4053 165.7584 339.4053 161.91456 
L 339.4053 127.80048 
Q 339.4053 123.95664 334.7181 123.95664 
L 198.2034 123.95664 
Q 193.5162 123.95664 193.5162 127.80048 
L 193.5162 161.91456 
Q 193.5162 165.7584 198.2034 165.7584 
z
" clip-path="url(#pf52f605a98)" style="fill: #f9e4ea; stroke: #d45d79; stroke-linejoin: miter"/>
   </g>
   <g id="patch_29">
    <path d="M 250.3485 152.78544 
L 253.39518 152.78544 
L 253.39518 150.286944 
L 250.3485 150.286944 
z
" clip-path="url(#pf52f605a98)" style="fill: #eef1f4; stroke: #d9dee6; stroke-width: 0.5; stroke-linejoin: miter"/>
   </g>
   <g id="patch_30">
    <path d="M 254.74275 152.78544 
L 257.78943 152.78544 
L 257.78943 150.286944 
L 254.74275 150.286944 
z
" clip-path="url(#pf52f605a98)" style="fill: #d45d79; stroke: #d45d79; stroke-width: 0.5; stroke-linejoin: miter"/>
   </g>
   <g id="patch_31">
    <path d="M 259.137 152.78544 
L 262.18368 152.78544 
L 262.18368 150.286944 
L 259.137 150.286944 
z
" clip-path="url(#pf52f605a98)" style="fill: #d45d79; stroke: #d45d79; stroke-width: 0.5; stroke-linejoin: miter"/>
   </g>
   <g id="patch_32">
    <path d="M 263.53125 152.78544 
L 266.57793 152.78544 
L 266.57793 150.286944 
L 263.53125 150.286944 
z
" clip-path="url(#pf52f605a98)" style="fill: #eef1f4; stroke: #d9dee6; stroke-width: 0.5; stroke-linejoin: miter"/>
   </g>
   <g id="patch_33">
    <path d="M 267.9255 152.78544 
L 270.97218 152.78544 
L 270.97218 150.286944 
L 267.9255 150.286944 
z
" clip-path="url(#pf52f605a98)" style="fill: #eef1f4; stroke: #d9dee6; stroke-width: 0.5; stroke-linejoin: miter"/>
   </g>
   <g id="patch_34">
    <path d="M 272.31975 152.78544 
L 275.36643 152.78544 
L 275.36643 150.286944 
L 272.31975 150.286944 
z
" clip-path="url(#pf52f605a98)" style="fill: #eef1f4; stroke: #d9dee6; stroke-width: 0.5; stroke-linejoin: miter"/>
   </g>
   <g id="patch_35">
    <path d="M 276.714 152.78544 
L 279.76068 152.78544 
L 279.76068 150.286944 
L 276.714 150.286944 
z
" clip-path="url(#pf52f605a98)" style="fill: #d45d79; stroke: #d45d79; stroke-width: 0.5; stroke-linejoin: miter"/>
   </g>
   <g id="patch_36">
    <path d="M 281.10825 152.78544 
L 284.15493 152.78544 
L 284.15493 150.286944 
L 281.10825 150.286944 
z
" clip-path="url(#pf52f605a98)" style="fill: #eef1f4; stroke: #d9dee6; stroke-width: 0.5; stroke-linejoin: miter"/>
   </g>
   <g id="patch_37">
    <path d="M 250.3485 156.38904 
L 253.39518 156.38904 
L 253.39518 153.890544 
L 250.3485 153.890544 
z
" clip-path="url(#pf52f605a98)" style="fill: #d45d79; stroke: #d45d79; stroke-width: 0.5; stroke-linejoin: miter"/>
   </g>
   <g id="patch_38">
    <path d="M 254.74275 156.38904 
L 257.78943 156.38904 
L 257.78943 153.890544 
L 254.74275 153.890544 
z
" clip-path="url(#pf52f605a98)" style="fill: #eef1f4; stroke: #d9dee6; stroke-width: 0.5; stroke-linejoin: miter"/>
   </g>
   <g id="patch_39">
    <path d="M 259.137 156.38904 
L 262.18368 156.38904 
L 262.18368 153.890544 
L 259.137 153.890544 
z
" clip-path="url(#pf52f605a98)" style="fill: #d45d79; stroke: #d45d79; stroke-width: 0.5; stroke-linejoin: miter"/>
   </g>
   <g id="patch_40">
    <path d="M 263.53125 156.38904 
L 266.57793 156.38904 
L 266.57793 153.890544 
L 263.53125 153.890544 
z
" clip-path="url(#pf52f605a98)" style="fill: #eef1f4; stroke: #d9dee6; stroke-width: 0.5; stroke-linejoin: miter"/>
   </g>
   <g id="patch_41">
    <path d="M 267.9255 156.38904 
L 270.97218 156.38904 
L 270.97218 153.890544 
L 267.9255 153.890544 
z
" clip-path="url(#pf52f605a98)" style="fill: #eef1f4; stroke: #d9dee6; stroke-width: 0.5; stroke-linejoin: miter"/>
   </g>
   <g id="patch_42">
    <path d="M 272.31975 156.38904 
L 275.36643 156.38904 
L 275.36643 153.890544 
L 272.31975 153.890544 
z
" clip-path="url(#pf52f605a98)" style="fill: #eef1f4; stroke: #d9dee6; stroke-width: 0.5; stroke-linejoin: miter"/>
   </g>
   <g id="patch_43">
    <path d="M 276.714 156.38904 
L 279.76068 156.38904 
L 279.76068 153.890544 
L 276.714 153.890544 
z
" clip-path="url(#pf52f605a98)" style="fill: #d45d79; stroke: #d45d79; stroke-width: 0.5; stroke-linejoin: miter"/>
   </g>
   <g id="patch_44">
    <path d="M 281.10825 156.38904 
L 284.15493 156.38904 
L 284.15493 153.890544 
L 281.10825 153.890544 
z
" clip-path="url(#pf52f605a98)" style="fill: #eef1f4; stroke: #d9dee6; stroke-width: 0.5; stroke-linejoin: miter"/>
   </g>
   <g id="patch_45">
    <path d="M 95.6709 228.2208 
L 311.2821 228.2208 
Q 315.9693 228.2208 315.9693 224.37696 
L 315.9693 192.66528 
Q 315.9693 188.82144 311.2821 188.82144 
L 95.6709 188.82144 
Q 90.9837 188.82144 90.9837 192.66528 
L 90.9837 224.37696 
Q 90.9837 228.2208 95.6709 228.2208 
z
" clip-path="url(#pf52f605a98)" style="fill: #f4f1e4; stroke: #cda349; stroke-linejoin: miter"/>
   </g>
   <g id="patch_46">
    <path d="M 353.4669 237.34992 
L 542.7126 237.34992 
Q 547.3998 237.34992 547.3998 233.50608 
L 547.3998 182.5752 
Q 547.3998 178.73136 542.7126 178.73136 
L 353.4669 178.73136 
Q 348.7797 178.73136 348.7797 182.5752 
L 348.7797 233.50608 
Q 348.7797 237.34992 353.4669 237.34992 
z
" clip-path="url(#pf52f605a98)" style="fill: #edf4ed; stroke: #4f8f5b; stroke-linejoin: miter"/>
   </g>
   <g id="line2d_1">
    <path d="M 360.4977 213.08568 
L 535.6818 213.08568 
" clip-path="url(#pf52f605a98)" style="fill: none; stroke: #d7e3d8; stroke-width: 0.6; stroke-linecap: square"/>
   </g>
   <g id="line2d_2">
    <path d="M 360.4977 221.25384 
L 535.6818 221.25384 
" clip-path="url(#pf52f605a98)" style="fill: none; stroke: #d7e3d8; stroke-width: 0.6; stroke-linecap: square"/>
   </g>
   <g id="line2d_3">
    <path d="M 360.4977 229.422 
L 535.6818 229.422 
" clip-path="url(#pf52f605a98)" style="fill: none; stroke: #d7e3d8; stroke-width: 0.6; stroke-linecap: square"/>
   </g>
   <g id="text_1">
    <text style="font-weight: 700; font-size: 14px; font-family: 'DejaVu Sans'; text-anchor: start; fill: #19212e" x="21.8475" y="24.0168" transform="rotate(-0 21.8475 24.0168)">Figure 1. SHP turns one nucleotide stream into two structural views</text>
   </g>
   <g id="text_2">
    <text style="font-size: 9px; font-family: 'DejaVu Sans'; text-anchor: start; fill: #677383" x="21.8475" y="38.4312" transform="rotate(-0 21.8475 38.4312)">Chroma asks what 3-mers are present. Rhythm asks how 3-mers transition. Cross-harm measures their mismatch.</text>
   </g>
   <g id="text_3">
    <text style="font-size: 8px; font-family: 'DejaVu Sans'; text-anchor: middle; fill: #19212e" x="54.6579" y="70.42846" transform="rotate(-0 54.6579 70.42846)">ATG</text>
   </g>
   <g id="text_4">
    <text style="font-size: 8px; font-family: 'DejaVu Sans'; text-anchor: middle; fill: #19212e" x="92.1555" y="70.42846" transform="rotate(-0 92.1555 70.42846)">CCG</text>
   </g>
   <g id="text_5">
    <text style="font-size: 8px; font-family: 'DejaVu Sans'; text-anchor: middle; fill: #19212e" x="129.6531" y="70.42846" transform="rotate(-0 129.6531 70.42846)">TTA</text>
   </g>
   <g id="text_6">
    <text style="font-size: 8px; font-family: 'DejaVu Sans'; text-anchor: middle; fill: #19212e" x="167.1507" y="70.42846" transform="rotate(-0 167.1507 70.42846)">GGC</text>
   </g>
   <g id="text_7">
    <text style="font-size: 8px; font-family: 'DejaVu Sans'; text-anchor: middle; fill: #19212e" x="204.6483" y="70.42846" transform="rotate(-0 204.6483 70.42846)">AAG</text>
   </g>
   <g id="text_8">
    <text style="font-size: 8px; font-family: 'DejaVu Sans'; text-anchor: middle; fill: #19212e" x="242.1459" y="70.42846" transform="rotate(-0 242.1459 70.42846)">TCC</text>
   </g>
   <g id="text_9">
    <text style="font-size: 8px; font-family: 'DejaVu Sans'; text-anchor: middle; fill: #19212e" x="279.6435" y="70.42846" transform="rotate(-0 279.6435 70.42846)">GAT</text>
   </g>
   <g id="text_10">
    <text style="font-size: 8px; font-family: 'DejaVu Sans'; text-anchor: middle; fill: #19212e" x="317.1411" y="70.42846" transform="rotate(-0 317.1411 70.42846)">TGA</text>
   </g>
   <g id="text_11">
    <text style="font-size: 8px; font-family: 'DejaVu Sans'; text-anchor: middle; fill: #19212e" x="185.8995" y="96.37438" transform="rotate(-0 185.8995 96.37438)">128 nt sliding window</text>
   </g>
   <g id="text_12">
    <text style="font-size: 9px; font-family: 'DejaVu Sans'; text-anchor: middle; fill: #19212e" x="105.33825" y="137.010638" transform="rotate(-0 105.33825 137.010638)">Chroma</text>
   </g>
   <g id="text_13">
    <text style="font-size: 7.2px; font-family: 'DejaVu Sans'; text-anchor: middle; fill: #19212e" x="105.33825" y="147.08451" transform="rotate(-0 105.33825 147.08451)">3-mer presence</text>
   </g>
   <g id="text_14">
    <text style="font-weight: 700; font-size: 7.2px; font-family: 'DejaVu Sans'; text-anchor: start; fill: #19212e" x="58.7592" y="155.569462" transform="rotate(-0 58.7592 155.569462)">C_t</text>
   </g>
   <g id="text_15">
    <text style="font-size: 9px; font-family: 'DejaVu Sans'; text-anchor: middle; fill: #19212e" x="266.46075" y="137.010638" transform="rotate(-0 266.46075 137.010638)">Rhythm</text>
   </g>
   <g id="text_16">
    <text style="font-size: 7.2px; font-family: 'DejaVu Sans'; text-anchor: middle; fill: #19212e" x="266.46075" y="147.08451" transform="rotate(-0 266.46075 147.08451)">3-mer transitions</text>
   </g>
   <g id="text_17">
    <text style="font-weight: 700; font-size: 7.2px; font-family: 'DejaVu Sans'; text-anchor: start; fill: #19212e" x="219.8817" y="155.5329" transform="rotate(-0 219.8817 155.5329)">R_t</text>
   </g>
   <g id="patch_47">
    <path d="M 105.6312 102.890712 
Q 105.6312 112.905256 105.6312 121.354552 
" style="fill: none; stroke: #1b9aaa; stroke-width: 1.4; stroke-linecap: round"/>
    <path d="M 107.4312 117.754552 
L 105.6312 121.354552 
L 103.8312 117.754552 
z
" style="fill: #1b9aaa; stroke: #1b9aaa; stroke-width: 1.4; stroke-linecap: round"/>
   </g>
   <g id="patch_48">
    <path d="M 266.7537 102.890712 
Q 266.7537 112.905256 266.7537 121.354552 
" style="fill: none; stroke: #d45d79; stroke-width: 1.4; stroke-linecap: round"/>
    <path d="M 268.5537 117.754552 
L 266.7537 121.354552 
L 264.9537 117.754552 
z
" style="fill: #d45d79; stroke: #d45d79; stroke-width: 1.4; stroke-linecap: round"/>
   </g>
   <g id="patch_49">
    <path d="M 107.459241 165.601094 
Q 134.046535 177.289562 159.200937 188.348092 
" style="fill: none; stroke: #1b9aaa; stroke-width: 1.4; stroke-linecap: round"/>
    <path d="M 156.629762 185.251472 
L 159.200937 188.348092 
L 155.180936 188.54706 
z
" style="fill: #1b9aaa; stroke: #1b9aaa; stroke-width: 1.4; stroke-linecap: round"/>
   </g>
   <g id="patch_50">
    <path d="M 265.424697 166.288852 
Q 255.622823 177.288547 246.862289 187.119648 
" style="fill: none; stroke: #d45d79; stroke-width: 1.4; stroke-linecap: round"/>
    <path d="M 250.601181 185.62945 
L 246.862289 187.119648 
L 247.913465 183.234416 
z
" style="fill: #d45d79; stroke: #d45d79; stroke-width: 1.4; stroke-linecap: round"/>
   </g>
   <g id="text_18">
    <text style="font-size: 7px; font-family: 'DejaVu Sans'; fill: #19212e" transform="translate(173.845172 202.419526)">cross-harm trace</text>
    <text style="font-size: 7px; font-family: 'DejaVu Sans'; fill: #19212e" transform="translate(170.155953 210.257995)">h_t = 1 - J(C_t, R_t)</text>
    <text style="font-size: 7px; font-family: 'DejaVu Sans'; fill: #19212e" transform="translate(163.347906 218.291151)">d_t &gt; theta_0 -&gt; event</text>
   </g>
   <g id="text_19">
    <text style="font-weight: 700; font-size: 8px; font-family: 'DejaVu Sans'; text-anchor: middle; fill: #19212e" x="448.08975" y="190.54846" transform="rotate(-0 448.08975 190.54846)">readout matrix</text>
   </g>
   <g id="text_20">
    <text style="font-weight: 700; font-size: 6.8px; font-family: 'DejaVu Sans'; text-anchor: middle; fill: #677383" x="467.1315" y="201.748855" transform="rotate(-0 467.1315 201.748855)">CDS</text>
   </g>
   <g id="text_21">
    <text style="font-weight: 700; font-size: 6.8px; font-family: 'DejaVu Sans'; text-anchor: middle; fill: #677383" x="514.0035" y="201.748855" transform="rotate(-0 514.0035 201.748855)">UTR</text>
   </g>
   <g id="text_22">
    <text style="font-size: 6.7px; font-family: 'DejaVu Sans'; text-anchor: start; fill: #19212e" x="364.599" y="209.796249" transform="rotate(-0 364.599 209.796249)">fixed_wit</text>
   </g>
   <g id="text_23">
    <text style="font-size: 6.7px; font-family: 'DejaVu Sans'; text-anchor: middle; fill: #19212e" x="467.1315" y="209.889421" transform="rotate(-0 467.1315 209.889421)">0.012</text>
   </g>
   <g id="text_24">
    <text style="font-size: 6.7px; font-family: 'DejaVu Sans'; text-anchor: middle; fill: #19212e" x="514.0035" y="209.889421" transform="rotate(-0 514.0035 209.889421)">0.030</text>
   </g>
   <g id="text_25">
    <text style="font-size: 6.7px; font-family: 'DejaVu Sans'; text-anchor: start; fill: #19212e" x="364.599" y="217.964409" transform="rotate(-0 364.599 217.964409)">tail_energy</text>
   </g>
   <g id="text_26">
    <text style="font-size: 6.7px; font-family: 'DejaVu Sans'; text-anchor: middle; fill: #19212e" x="467.1315" y="218.057581" transform="rotate(-0 467.1315 218.057581)">0.0001</text>
   </g>
   <g id="text_27">
    <text style="font-size: 6.7px; font-family: 'DejaVu Sans'; text-anchor: middle; fill: #19212e" x="514.0035" y="218.057581" transform="rotate(-0 514.0035 218.057581)">0.0007</text>
   </g>
   <g id="text_28">
    <text style="font-size: 6.7px; font-family: 'DejaVu Sans'; text-anchor: start; fill: #19212e" x="364.599" y="226.132569" transform="rotate(-0 364.599 226.132569)">skew_d</text>
   </g>
   <g id="text_29">
    <text style="font-size: 6.7px; font-family: 'DejaVu Sans'; text-anchor: middle; fill: #19212e" x="467.1315" y="226.225741" transform="rotate(-0 467.1315 226.225741)">+0.8</text>
   </g>
   <g id="text_30">
    <text style="font-size: 6.7px; font-family: 'DejaVu Sans'; text-anchor: middle; fill: #19212e" x="514.0035" y="226.225741" transform="rotate(-0 514.0035 226.225741)">+1.2</text>
   </g>
   <g id="text_31">
    <text style="font-size: 6.7px; font-family: 'DejaVu Sans'; text-anchor: start; fill: #19212e" x="364.599" y="234.300729" transform="rotate(-0 364.599 234.300729)">kurt_d</text>
   </g>
   <g id="text_32">
    <text style="font-size: 6.7px; font-family: 'DejaVu Sans'; text-anchor: middle; fill: #19212e" x="467.1315" y="234.393901" transform="rotate(-0 467.1315 234.393901)">+0.1</text>
   </g>
   <g id="text_33">
    <text style="font-size: 6.7px; font-family: 'DejaVu Sans'; text-anchor: middle; fill: #19212e" x="514.0035" y="234.393901" transform="rotate(-0 514.0035 234.393901)">+1.7</text>
   </g>
   <g id="patch_51">
    <path d="M 316.801518 208.52112 
Q 332.374969 208.52112 346.383171 208.52112 
" style="fill: none; stroke: #4f8f5b; stroke-width: 1.4; stroke-linecap: round"/>
    <path d="M 342.783171 206.72112 
L 346.383171 208.52112 
L 342.783171 210.32112 
z
" style="fill: #4f8f5b; stroke: #4f8f5b; stroke-width: 1.4; stroke-linecap: round"/>
   </g>
  </g>
 </g>
 <defs>
  <clipPath id="pf52f605a98">
   <rect x="7.2" y="7.2" width="585.9" height="288.288"/>
  </clipPath>
 </defs>
</svg>
